<svg width="32" height="32" viewBox="0 0 24 24" fill="#dc2626" xmlns="http://www.w3.org/2000/svg">
  <path d="M12 2C7.03 2 3 6.03 3 11c0 3.63 2.28 6.74 5.5 8.05-.08-.68-.15-1.72.03-2.46.17-.71 1.1-4.55 1.1-4.55s-.28-.57-.28-1.41c0-1.32.77-2.3 1.73-2.3.82 0 1.22.62 1.22 1.36 0 .83-.53 2.07-.8 3.22-.23.96.49 1.74 1.46 1.74 1.75 0 3.1-1.85 3.1-4.53 0-2.37-1.7-4.03-4.13-4.03-2.81 0-4.46 2.11-4.46 4.29 0 .85.33 1.77.74 2.26.08.1.09.19.06.29-.07.32-.23 1.03-.26 1.17-.04.17-.13.2-.31.12-1.17-.55-1.90-2.25-1.90-3.62 0-2.94 2.14-5.64 6.16-5.64 3.33 0 5.92 2.38 5.92 5.56 0 3.31-2.09 5.98-4.99 5.98-1.0 0-1.93-.52-2.25-1.13l-.61 2.33c-.22.87-.81 1.96-1.21 2.62.91.28 1.87.43 2.87.43 4.97 0 9-4.03 9-9s-4.03-9-9-9z"/>
</svg>
